<?xml version="1.0" encoding="UTF-8"?>
<svg width="114.96mm" height="41.869mm" version="1.1" viewBox="0 0 114.96 41.869" xmlns="http://www.w3.org/2000/svg">
<g transform="translate(-33.321 -27.783)">
<path d="m54.099 38.701q-1.894 1.4543-2.8692 3.2215-0.93892 1.7661-0.15654 2.9073 0.79442 1.1587 2.2602 0.864 1.4779-0.27719 3.4447-1.7874 1.9911-1.5289 2.8697-3.329 0.89057-1.7826 0.12023-2.9062-0.77034-1.1236-2.2727-0.77404-1.4781 0.33095-3.3963 1.8039zm-4.2268 6.8097q-1.1796-1.7206-0.48098-3.9453 0.72289-2.2434 3.1025-4.0706 2.4039-1.8458 4.8254-1.99 2.4336-0.12664 3.6131 1.5939 1.1916 1.7381 0.44445 4.0002-0.71086 2.2609-3.1148 4.1068-2.3796 1.8272-4.8009 1.9176-2.4093 0.108-3.5889-1.6126z" fill="#ffffff"  stroke-width=".26572"/>
<path d="m90.855 35.279q1.5726 1.7969 2.183 3.7209 0.57499 1.9157-0.41567 2.8817-1.0059 0.98079-2.3857 0.40477-1.395-0.56116-3.0281-2.4272-1.6533-1.8891-2.1624-3.8264-0.52435-1.9224 0.45107-2.8735 0.97542-0.95107 2.3803-0.31412 1.3847 0.61392 2.9775 2.4339zm2.8118 7.5055q1.4936-1.4563 1.2441-3.7748-0.26969-2.3415-2.2456-4.5992-1.996-2.2807-4.3424-2.8962-2.3617-0.60063-3.8553 0.8557-1.5089 1.4712-1.219 3.8357 0.25445 2.3564 2.2505 4.6371 1.9759 2.2577 4.3326 2.8204 2.3415 0.57759 3.8351-0.87874z" fill="#ffffff" stroke-width=".26572"/>
<path d="m54.104 43.81-7.5877 9.3157c-1.3732 0.27642-1.4644 0.23136-1.8012-1.206l7.6178-9.3526c0.31887 0.154 1.6456-0.52542 1.7711 1.2429z" fill="#ffffff" stroke-width=".22724"/>
<path d="m89.876 41.456 2.4609 11.76c1.0928 0.87628 1.1945 0.87815 2.1539-0.2439l-2.4707-11.807c-0.35398-0.0097-1.2204-1.2226-2.1441 0.29052z" fill="#ffffff" stroke-width=".22724"/>
<path d="m70.017 35.591q2.3875 0.04456 4.252-0.7285 1.8354-0.79486 1.9357-2.1749 0.10176-1.4012-1.2278-2.0851-1.3281-0.70509-3.8074-0.75137-2.5099-0.04685-4.3194 0.81227-1.8079 0.8379-1.9066 2.1967-0.09868 1.3588 1.2937 2.0225 1.3618 0.66321 3.7799 0.70834zm7.5512-2.6866q-0.1511 2.0806-2.0848 3.3839-1.9643 1.3027-4.9639 1.2467-3.0303-0.05656-5.013-1.4542-1.9812-1.4188-1.8301-3.4994 0.15264-2.1018 2.1475-3.404 1.9658-1.3239 4.9961-1.2674 2.9997 0.05599 4.9487 1.4955 1.9506 1.4183 1.7995 3.4989z" fill="#ffffff" stroke-width=".26572" style="white-space:pre"/>
<path d="m56.791 38.779 9.9828-6.6857c1.3939 0.13776 1.468 0.20756 1.3691 1.6805l-10.022 6.7122c-0.25981-0.24061-1.7273 0.02057-1.3295-1.707z" fill="#ffffff" stroke-width=".22724"/>
<path d="m74.656 31.671 11.822 2.1431c0.90541 1.0688 0.91002 1.1704-0.18577 2.1597l-11.869-2.1516c-0.01921-0.35359-1.255-1.187 0.23264-2.1512z" fill="#ffffff" stroke-width=".22724"/>
<path d="m33.575 69.5q-0.254 0-0.254-0.254v-28.727q0-0.254 0.2286-0.254 2.8194 0 6.4262-0.1524l0.2032 1.2192q-3.9878 0.2032-4.318 0.3302-0.2286 0.1016-0.254 0.254v25.959q0 0.2286 0.6604 0.3302 1.0922 0.127 3.8862 0.2286l-0.1778 1.2192q-2.9972-0.1524-6.4008-0.1524z" fill="#a40000" stroke-width=".26458" style="white-space:pre"/>
<path d="m48.206 52.228q-0.4318-0.4318-1.1938-0.8636t-1.7526-0.4318-1.8288 1.0922q-0.8382 1.0668-0.8382 3.0226t1.016 3.3782q1.016 1.397 3.0226 1.397 1.6002 0 2.6416-1.0414 0.0508-0.0508 0.127-0.0508t0.127 0.0508l0.508 0.5842q-1.8796 2.032-4.3688 2.032-2.4638 0-3.937-1.5748-1.4478-1.5748-1.4478-3.9624 0-2.9464 1.6256-4.4704 1.651-1.524 4.1148-1.524 1.0668 0 2.159 0.3048 1.1176 0.3048 1.6764 0.762 0.0254 0.0508 0.0254 0.1016 0 0.3556-0.7874 1.4986-0.1016 0.1016-0.2794 0.1016-0.1524 0-0.6096-0.4064z" fill="#ffffff" stroke-width=".26458" style="white-space:pre"/>
<path d="m61.973 57.511q0 1.2192 0.4318 1.8796 0.4318 0.635 1.1684 0.635 0.762 0 1.397-0.4064 0.1016-0.0508 0.2032 0.0508l0.4572 0.6858q-1.397 1.0414-2.8956 1.0414-1.4732 0-2.2098-0.9144-0.7112-0.9398-0.7112-2.2098v-6.3754q0-0.3048-0.1016-0.381-0.0762-0.0762-0.2286-0.0762h-0.889l-0.2286-0.7366q1.0668-0.3302 1.7272-1.0668 0.6858-0.7366 1.3208-1.9812h0.2794q0.1778 0 0.1778 0.1524l0.1016 2.032q0 0.3302 0.3302 0.3302h2.8956l0.2286 1.27h-3.175q-0.254 0-0.254 0.381 0 0.0254 0 0.0254v0.0508z" fill="#ffffff" stroke-width=".26458" style="white-space:pre"/>
<path d="m76.908 54.92h-7.366v0.3302q0 1.8542 1.0414 3.2258 1.0414 1.3462 2.7686 1.3462t2.8448-1.1176q0.0762-0.0762 0.127-0.0762t0.127 0.0762l0.5588 0.635q-1.905 2.0574-4.4196 2.0574-2.4892 0-3.937-1.5748-1.4224-1.5748-1.4224-4.191 0-2.6416 1.6256-4.191 1.6256-1.5748 3.7084-1.5748t3.2766 1.27q1.1938 1.2446 1.1938 3.5052 0 0.2794-0.127 0.2794zm-2.413-1.1938q0-2.794-2.159-2.794-1.143 0-1.8542 0.8128-0.7112 0.7874-0.8636 1.9812z" fill="#ffffff" stroke-width=".26458" style="white-space:pre"/>
<path d="m81.632 67.874v-25.959q0-0.254-0.508-0.3302-0.635-0.1016-4.064-0.254l0.2032-1.2192q3.6068 0.1524 6.4262 0.1524 0.2286 0 0.2286 0.254v28.727q0 0.254-0.254 0.254-3.3528 0-6.4008 0.1524l-0.1778-1.2192q3.9116-0.127 4.3942-0.3556 0.1524-0.0762 0.1524-0.2032z" fill="#a40000" stroke-width=".26458" style="white-space:pre"/>
<path d="m95.348 52.228q-0.4318-0.4318-1.1938-0.8636t-1.7526-0.4318-1.8288 1.0922q-0.8382 1.0668-0.8382 3.0226t1.016 3.3782q1.016 1.397 3.0226 1.397 1.6002 0 2.6416-1.0414 0.0508-0.0508 0.127-0.0508t0.127 0.0508l0.508 0.5842q-1.8796 2.032-4.3688 2.032-2.4638 0-3.937-1.5748-1.4478-1.5748-1.4478-3.9624 0-2.9464 1.6256-4.4704 1.651-1.524 4.1148-1.524 1.0668 0 2.159 0.3048 1.1176 0.3048 1.6764 0.762 0.0254 0.0508 0.0254 0.1016 0 0.3556-0.7874 1.4986-0.1016 0.1016-0.2794 0.1016-0.1524 0-0.6096-0.4064z" fill="#ffffff" stroke-width=".26458" style="white-space:pre"/>
<path d="m98.676 43.846-0.381 0.0254-0.2286-0.7366q1.9812-0.508 3.6322-1.3462 0.3048 0 0.381 0.1016 0.1016 0.0762 0.127 0.381v9.0678q0.889-0.508 1.3716-0.762 1.2954-0.7112 2.667-0.7112 3.6068 0 3.6068 3.7846v5.6388q0 0.4572 0.2286 0.635 0.2286 0.1524 1.1176 0.2286l0.2286 1.016-2.4892-0.0762t-2.7432 0.0762l-0.2032-1.016q1.2192-0.1016 1.4478-0.2032 0.254-0.127 0.254-0.6604v-4.7752q0-1.6256-0.6604-2.286-0.635-0.6604-2.0574-0.6604-1.397 0-2.7686 0.6604v7.0612q0 0.4572 0.2286 0.635 0.2286 0.1524 1.1176 0.2286l0.2286 1.016-2.4892-0.0762-2.7432 0.0762-0.2032-1.016q1.2192-0.1016 1.4478-0.2032 0.254-0.127 0.254-0.6604v-13.818q0-0.9144-0.3302-1.27-0.3302-0.3556-1.0414-0.3556z" fill="#ffffff" stroke-width=".26458" style="white-space:pre"/>
<path d="m122.6 54.92h-7.366v0.3302q0 1.8542 1.0414 3.2258 1.0414 1.3462 2.7686 1.3462t2.8448-1.1176q0.0762-0.0762 0.127-0.0762t0.127 0.0762l0.5588 0.635q-1.905 2.0574-4.4196 2.0574-2.4892 0-3.937-1.5748-1.4224-1.5748-1.4224-4.191 0-2.6416 1.6256-4.191 1.6256-1.5748 3.7084-1.5748t3.2766 1.27q1.1938 1.2446 1.1938 3.5052 0 0.2794-0.127 0.2794zm-2.413-1.1938q0-2.794-2.159-2.794-1.143 0-1.8542 0.8128-0.7112 0.7874-0.8636 1.9812z" fill="#ffffff" stroke-width=".26458" style="white-space:pre"/>
<path d="m132.51 52.228q-0.4318-0.4318-1.1938-0.8636t-1.7526-0.4318-1.8288 1.0922q-0.8382 1.0668-0.8382 3.0226t1.016 3.3782q1.016 1.397 3.0226 1.397 1.6002 0 2.6416-1.0414 0.0508-0.0508 0.127-0.0508t0.127 0.0508l0.508 0.5842q-1.8796 2.032-4.3688 2.032-2.4638 0-3.937-1.5748-1.4478-1.5748-1.4478-3.9624 0-2.9464 1.6256-4.4704 1.651-1.524 4.1148-1.524 1.0668 0 2.159 0.3048 1.1176 0.3048 1.6764 0.762 0.0254 0.0508 0.0254 0.1016 0 0.3556-0.7874 1.4986-0.1016 0.1016-0.2794 0.1016-0.1524 0-0.6096-0.4064z" fill="#ffffff" stroke-width=".26458" style="white-space:pre"/>
<path d="m138.45 61.092-2.7432 0.0762-0.2032-1.016q1.2192-0.1016 1.4478-0.2032 0.254-0.127 0.254-0.6604v-13.97q0-0.8382-0.3048-1.143-0.2794-0.3048-0.7874-0.3048-0.4826 0-0.6604 0.0254l-0.2286-0.762q1.9558-0.5842 3.683-1.3462 0.4572 0 0.4572 0.4826v12.7q0.7874-0.4318 2.286-2.0066 1.524-1.5748 1.524-1.8288t-0.1778-0.3048q-0.1778-0.0762-0.889-0.0762l-0.2286-0.9652 2.5654 0.0762q0.4826 0 2.3114-0.0762l0.2032 0.9398h-0.1016q-0.8382 0-1.27 0.1524t-0.8382 0.5842l-2.9464 3.0988q-0.0762 0.0762 0 0.1778 0.6096 0.889 1.8542 2.3114 1.27 1.4224 2.2352 2.286 0.9652 0.8382 2.0574 0.9398l0.3302 0.889-1.8796-0.0762q-0.8636 0-2.032 0.0508-0.8636-1.143-2.0574-2.5908-1.1684-1.4732-1.524-1.9304-0.8128-1.0414-1.4224-1.1684v3.8354q0 0.4572 0.1778 0.635 0.2032 0.1524 0.9144 0.2286l0.2286 1.016z" fill="#ffffff" stroke-width=".26458" style="white-space:pre"/>
<path transform="matrix(.26458 0 0 .26458 1.4158 12.113)" d="m200.75 185.12-10.368 0.288-0.768-3.84c3.072-0.256 4.896-0.512 5.472-0.768 0.64-0.32 0.96-1.152 0.96-2.496v-24.384c0-3.2-1.6-4.8-4.8-4.8-0.768 0-1.376 0.032-1.824 0.096l-0.864-2.784c4.16-1.024 6.816-1.76 7.968-2.208l5.856-2.304c0.832 0 1.344 0.096 1.536 0.288 0.192 0.128 0.288 0.544 0.288 1.248v34.848c0 1.152 0.288 1.952 0.864 2.4 0.576 0.384 1.984 0.672 4.224 0.864l0.864 3.84z" fill="#ffffff" style="shape-inside:url(#rect113);white-space:pre"/>
</g>
</svg>
