<?xml version="1.0" encoding="UTF-8"?>
<svg width="20mm" height="20mm" version="1.1" viewBox="0 0 20 20" xmlns="http://www.w3.org/2000/svg">
<g transform="translate(-33.321 -55.4)">
<g transform="translate(-.31362)">
<path d="m35.261 74.085q-0.254 0-0.254-0.15092v-17.068q0-0.15091 0.2286-0.15091 2.8194 0 6.4262-0.09054l0.2032 0.72438q-3.9878 0.12073-4.318 0.19619-0.2286 0.06036-0.254 0.15091v15.423q0 0.13582 0.6604 0.19619 1.0922 0.07546 3.8862 0.13582l-0.1778 0.72438q-2.9972-0.09055-6.4008-0.09055z" stroke-width=".20394" style="white-space:pre"/>
<path d="m44.916 61.02q-0.36308-0.36308-1.0038-0.72615-0.64072-0.36308-1.4737-0.36308t-1.5377 0.91837q-0.7048 0.89701-0.7048 2.5415 0 1.6445 0.8543 2.8405 0.8543 1.1747 2.5415 1.1747 1.3455 0 2.2212-0.87566 0.04272-0.04272 0.10679-0.04272 0.06407 0 0.10679 0.04272l0.42715 0.49122q-1.5804 1.7086-3.6735 1.7086-2.0717 0-3.3104-1.3242-1.2174-1.3242-1.2174-3.3318 0-2.4775 1.3669-3.7589 1.3882-1.2814 3.4599-1.2814 0.89701 0 1.8154 0.25629 0.93973 0.25629 1.4096 0.64072 0.02136 0.04271 0.02136 0.08543 0 0.299-0.66208 1.2601-0.08543 0.08543-0.23493 0.08543-0.12814 0-0.51258-0.34172z" stroke-width=".22247" style="white-space:pre"/>
<path d="m47.253 65.035q-0.36308-0.36308-1.0038-0.72615-0.64072-0.36308-1.4737-0.36308t-1.5377 0.91837q-0.7048 0.89701-0.7048 2.5415 0 1.6445 0.8543 2.8405 0.8543 1.1747 2.5415 1.1747 1.3455 0 2.2212-0.87566 0.04272-0.04272 0.10679-0.04272 0.06407 0 0.10679 0.04272l0.42715 0.49122q-1.5804 1.7086-3.6735 1.7086-2.0717 0-3.3104-1.3242-1.2174-1.3242-1.2174-3.3318 0-2.4775 1.3669-3.7589 1.3882-1.2814 3.4599-1.2814 0.89701 0 1.8154 0.25629 0.93973 0.25629 1.4096 0.64072 0.02136 0.04271 0.02136 0.08543 0 0.299-0.66208 1.2601-0.08543 0.08543-0.23493 0.08543-0.12814 0-0.51258-0.34172z" stroke-width=".22247" style="white-space:pre"/>
<path d="m49.977 73.06v-15.368q0-0.15037-0.508-0.19548-0.635-0.06014-4.064-0.15037l0.2032-0.72178q3.6068 0.09022 6.4262 0.09022 0.2286 0 0.2286 0.15037v17.007q0 0.15037-0.254 0.15037-3.3528 0-6.4008 0.09022l-0.1778-0.72178q3.9116-0.0752 4.3942-0.21052 0.1524-0.04511 0.1524-0.12029z" stroke-width=".20357" style="white-space:pre"/>
</g>
</g>
</svg>
